<?xml version="1.0" encoding="utf-8"?>
<!-- Generator: Adobe Illustrator 27.2.0, SVG Export Plug-In . SVG Version: 6.00 Build 0)  -->
<svg version="1.1" xmlns="http://www.w3.org/2000/svg" xmlns:xlink="http://www.w3.org/1999/xlink" x="0px" y="0px"
	 viewBox="0 0 969.7 394.8" style="enable-background:new 0 0 969.7 394.8;" xml:space="preserve">
<style type="text/css">
	.st0{fill:#D4AE63;}
</style>
<g id="LOGO">
	<g>
		<g>
			<path class="st0" d="M109.1,0.7c2.3,1.9,5.3,0.7,7.9,1.5c8.3,2.6,16.5,4.9,24.3,9c8.5,4.5,15.8,10.3,23.2,16.4
				c5,4.1,7.9,9.7,12.4,14.1c2.2,2.1,3.4,4.3,3.1,7.5c-0.4,3.7-1.8,6.5-4.6,7.5c-3.1,1.1-8.8-0.5-10.5-3c-2.7-3.9-6-7.1-9.8-9.8
				c-5.1-3.5-9.5-7.8-15.1-10.5c-4.6-2.3-9.2-4.7-14-6.6c-6.1-2.4-12.4-3.9-18.7-5.1c-5.8-1.1-11.8-0.8-17.7-1.1
				c-10.9-0.4-21.4,1.4-31.5,4.9c-8.1,2.8-16.2,6.1-23.2,11.6c-4.7,3.7-9.6,7.1-14.3,10.8c-2.1,1.7-3.3,4.4-5.3,6.3
				c-3.8,3.8-11.5,4-14.2-1c-1.7-2.4-0.7-5-0.7-7.6c0.6-3.2,3.1-5.2,5-7.6c5.6-6.9,12-13,19.1-18.3c6.6-5,13.7-9.1,21.3-12.4
				c7.7-3.3,15.7-5.6,24-6.5c0.5,0,0.9-0.4,1.4-0.5c1.5-0.2,3.1,0.4,4.5-0.3c0.4,0,0.8,0,1.2,0c3.6,0.7,7.3,0.3,10.9,0.3
				c5.5,0,11,0.4,16.5-0.3c0.4,0,0.8,0,1.2,0C106.7,0.9,108.1-0.3,109.1,0.7z"/>
			<path class="st0" d="M104.4,0c-0.5,0.6-1.2,0.6-1.9,0.6c-7.9,0-15.8,0-23.7,0c-0.7,0-1.4,0.1-1.9-0.6C86.1,0,95.3,0,104.4,0z"/>
			<path class="st0" d="M0,45.4c0.4-0.1,0.8-0.1,1.1-0.2c-0.8,2.7-0.9,5.3,0,8c-0.4,0-0.8,0-1.2,0C0,50.6,0,48,0,45.4z"/>
			<path class="st0" d="M179.9,121.4c0.6,9.1-1.3,17-4.1,24.9c-2.6,7.1-6.3,13.2-11.2,18.9c-6.9,8-14.8,14.5-24.3,18.9
				c-5.8,2.7-12,4.4-18.4,5.2c-5.4,0.7-10.7,1.8-16.1,1.4c-6.9-0.5-13.7-1.2-20.4-3.4c-5.1-1.7-10.3-3.3-14.7-6.5
				c-7.4-5.3-14.8-10.7-19.8-18.5c-3.8-6-7.3-12.2-7.7-19.8c-0.2-3.6-0.8-7.3-0.6-10.9c0.3-7.8,2.9-14.9,6.6-21.7
				c3.2-5.9,7.7-10.5,13-14.4c4.6-3.4,9.8-5.8,15.2-7.7C84,85.3,91,85.5,98,85.4c4.9-0.1,9.5,1.3,13.9,3c7.4,2.8,13.9,7.3,19.4,12.9
				c3.6,3.7,5.9,8.6,7.1,13.7c1.6,6.4,1.6,13-0.8,19.2c-3.1,7.9-8.1,14.3-15.8,18.2c-5.5,2.8-11.3,4.1-17.4,4.6
				c-10.2,0.9-19.1-1.7-26.9-8.4c-4.3-3.7-6.1-13.4-2.2-17.5c3.8-3.9,8.3-7.2,14.5-7.4c5.8-0.1,10.4,1.2,14.2,5.7
				c1.7,2,4,4.1,6.8,4.4c4.9,0.5,6.7-1.4,7-6.4c0.3-5.6-0.9-11-4.1-15.4c-2.8-3.8-7.1-6.3-12.1-6.6c-4.2-0.2-8.4,0.1-12.5-0.1
				c-2.5-0.1-4.7,0.9-6.7,1.9c-5.6,2.7-11.5,5.1-15.8,10c-4.7,5.5-8.1,11.6-7.7,19c0.3,6.5,3.1,12.2,7,17.3
				c6.4,8.2,15.5,11.6,25.2,14.2c7.5,2,15,1.5,22.5,1.4c4.7-0.1,9.3-1.4,13.6-3.1c7.2-3,14.5-6.3,19.7-12.5c3.4-4,6-8.4,8.1-13.4
				c2-4.8,3.6-9.8,4.3-14.7c0.5-3.5,2.9-7,0.5-11.3c-1.6-3-1.1-7.2-2.8-10.7c-2.6-5.5-5.4-10.8-10.6-14.7c-4.7-3.6-9.2-7.2-14.8-9.2
				c-6.1-2.1-11.9-4.6-18.5-5.1c-4.9-0.4-9.8-1.6-14.8-1.5c-10.6,0.3-20.9,1.8-30.9,5.7c-7.6,2.9-14,7.4-20.3,12.4
				c-9.5,7.6-13.6,17.9-16.3,28.9c-0.9,3.6-0.9,7.6-1.1,11.5c-0.3,5.3,0.3,10.5,1.7,15.5c2.3,8,5.1,15.9,10.5,22.6
				c3.5,4.3,6.3,9.2,9.9,13.4c5.7,6.5,13,10.9,21.2,13.4c4.4,1.3,9.3,2.5,14.2,0.6c0.7-0.3,1.6-0.1,2.4-0.1c7.5,0,14.9-0.1,22.4,0
				c4,0.1,7.8,1.5,11.2,3.7c1.8,1.2,2.2,2.9,1.7,4.6c-0.9,3-2,6.1-5.6,7.3c-1,0.3-2.4,1.6-2.4,2.4c0,1.6,1.9,0.9,2.8,1.3
				c5.4,2.6,10.7,5.3,15.4,9c6.4,4.9,11.8,10.7,14.9,18.3c1.6,3.9,2.5,8,3.1,12.2c1.2,7.7,2.2,15.5,1.5,23.3
				c-0.7,9.6-1.3,19.1-1.4,28.7c0,4.4,1.3,8.5,1.8,12.8c0.9,7.2,4.3,13.9,4.3,21.3c0,2.9-1.8,5.9-3.9,6.5c-3.1,0.9-5.5-0.3-7.7-3
				c-3-3.6-4.8-8-6.6-12.1c-2.5-5.8-3.4-12.3-4.2-18.7c-0.4-3.2-1.2-6.5-0.7-9.7c1.5-8.3,0.9-16.7,0.6-24.9
				c-0.3-6.6-0.6-13.2-2.7-19.7c-1.3-4.2-2.1-8.6-4.1-12.5c-2.5-4.8-5.4-9.3-10.2-12.2c-5.7-3.4-11.6-5.2-18.2-5.8
				c-4.5-0.4-9.1,0-13.5-0.7c-4.7-0.8-9.2,0.1-13.7,0.3c-5.2,0.2-10.2,2.1-15,4.4c-6.2,2.9-10.8,7.7-14.2,13.5
				c-1.4,2.5-2.5,5.2-3.7,7.8c-1.6,3.4-2.9,6.9-3.7,10.4c-1.3,6.1-2.6,12.1-3,18.4c-0.3,4.1-0.1,8.4-1,12.6
				c-0.9,4.1-0.1,8.3-0.3,12.5c-0.3,7.9-0.5,15.8-3.2,23.2c-1.7,4.6-4.4,8.9-8.7,11.5c-4.8,3-10.8-0.6-11.2-6.3
				c-0.3-4,1.3-7.5,2.5-11.1c3.4-10.2,5.6-20.6,5.3-31.5c-0.3-11.4-0.3-22.7,0-34.1c0.3-13.2,4.7-24.8,14.5-34
				c2.5-2.3,5.6-4,8.4-5.9c4.2-2.9,6-7.1,6.2-12.1c0.1-2.2-1.5-3.1-3-4.1c-7.5-4.8-13.7-10.8-18.9-18.1c-4.4-6.3-8.3-12.8-10.8-20
				c-2.9-8.5-5.5-17.3-5.1-26.6c0.2-5.3,0.4-10.7-0.4-16c-0.4-2.8,0.6-5.8,1.3-8.6c1.8-6.5,2.6-13.2,6-19.2
				c2.3-4.2,4.6-8.4,7.4-12.2c6.8-9.2,14.6-17.2,25-22.4c5.9-3,11.9-5.5,18.3-7.1c8.5-2.1,17-3.3,25.7-3.7c7-0.3,13.7,0.7,20.6,1.5
				c8.4,0.9,16.1,3.7,23.8,6.6c6.4,2.4,12.6,6,17.7,10.6c5.4,4.9,11,9.8,14.9,16.2c3.7,5.9,6.8,12.2,8.3,19
				C179.4,110.3,181.1,116.1,179.9,121.4z"/>
			<path class="st0" d="M91.9,351c-1.4-12.5-0.8-25-1.1-37.5c-0.1-4.6-1.3-9.1-2.2-13.6c-0.3-1.3-0.9-3.2-2.6-3.3
				c-1.4-0.1-2,1.6-2.3,2.8c-1,3.9-2.7,7.5-3.2,11.8c-0.4,3.3-1.2,6.8-2,10.2c-0.3,1.2-0.4,2.3-0.4,3.5c0.2,8-1.4,15.8-2.3,23.8
				c-0.2,2-0.1,4-0.1,6c0,5.9-1.7,11.7-2,17.5c-0.3,5.7-2.3,10.9-3.3,16.4c-0.3,1.8-1.7,3-2.2,4.7c-0.3,1-1.3,1.7-2.6,1.5
				c-0.5-0.1-1,0-1.5,0c-2-0.2-4.6,0.9-6-0.6c-2.1-2.2-2.9-5.4-3-8.4c-0.1-2.6,0.4-5.3,0.8-7.9c0.7-5.2,1.3-10.5,2.3-15.7
				c0.8-4.1,0.1-8.4,0.8-12.4c0.5-2.7-0.1-5.7,0.8-8.1c2.5-6.4,0.7-12.9,1.4-19.3c0.8-7.6,0.1-15.3,1-22.8
				c0.7-5.5-0.4-10.6-0.8-15.9c-0.1-1.5-1.1-2.6-1.6-3.6c-2.6-5.2-0.3-9.6,1.4-14.2c2.4-6.2,7.2-9.9,12.4-13.6
				c6.2-4.4,13.2-3.6,19.4-2.5c5.6,1,10.9,4.9,14.7,9.9c4.1,5.5,5.2,11.6,4.5,18.5c-0.5,4.8-3.1,9-3.3,13.8c0,0.8-0.2,1.6-0.2,2.4
				c0,2.4,0.1,4.8,0,7.2c-0.5,18.2,1.1,36.4,0.7,54.6c0,2.5-0.3,4.9-0.6,7.3c-0.5,4,1,8,1.2,11.9c0.3,5.7,1,11.5-0.3,17.2
				c-0.3,1.5-1.3,2.1-3,2.3c-7.2,0.8-10-4.1-11.3-9.4c-2-7.9-2.1-15.9-3-23.9C92,357.9,92,354.4,91.9,351z"/>
		</g>
		<g>
			<path class="st0" d="M259.1,144.6l-8.8,16.6v55.9h-28.6v-182h28.6V114h0.5l36.9-78.8h28.6l-39.8,81.1l39.8,100.9h-29.4
				L259.1,144.6z"/>
			<path class="st0" d="M421.9,217.2H393l-4.9-33H353l-4.9,33h-26.3l29.1-182h41.9L421.9,217.2z M356.6,159.5h27.6l-13.5-92h-0.5
				L356.6,159.5z"/>
			<path class="st0" d="M495.4,164.4h0.5l19.2-129.2H555v182h-27V86.7h-0.5l-19.2,130.5h-27L460.3,88.5h-0.5v128.7h-25v-182h39.8
				L495.4,164.4z"/>
			<path class="st0" d="M575.8,35.2h28.6v182h-28.6V35.2z"/>
			<path class="st0" d="M651.2,85.4h-0.5v131.8h-25.7v-182h35.9l28.9,108.9h0.5V35.2h25.5v182h-29.4L651.2,85.4z"/>
			<path class="st0" d="M774.7,33.1c27.8,0,42.1,16.6,42.1,45.8v5.7h-27V77c0-13-5.2-17.9-14.3-17.9S761.2,64,761.2,77
				c0,13.3,5.7,23.1,24.4,39.5c23.9,21.1,31.5,36.1,31.5,56.9c0,29.1-14.6,45.8-42.6,45.8s-42.6-16.6-42.6-45.8v-11.2h27v13
				c0,13,5.7,17.7,14.8,17.7s14.8-4.7,14.8-17.7c0-13.3-5.7-23.1-24.4-39.5c-23.9-21.1-31.5-36.1-31.5-56.9
				C732.6,49.7,746.9,33.1,774.7,33.1z"/>
			<path class="st0" d="M870.9,144.6l-8.8,16.6v55.9h-28.6v-182H862V114h0.5l36.9-78.8h28.6l-39.8,81.1l39.8,100.9h-29.4
				L870.9,144.6z"/>
			<path class="st0" d="M941.1,35.2h28.6v182h-28.6V35.2z"/>
			<path class="st0" d="M287.9,334.9h-47.7l-8.8,24.3h-15.1L256,250.5h16.5l39.4,108.7h-15.1L287.9,334.9z M283.9,323.3l-19.8-55.2
				l-19.8,55.2H283.9z"/>
			<path class="st0" d="M332.6,275.7c4.8-8.5,11.4-15.2,19.7-20c8.3-4.8,17.5-7.2,27.7-7.2c11.9,0,22.3,2.9,31.2,8.6
				c8.9,5.8,15.4,13.9,19.4,24.5h-17.1c-3-6.6-7.4-11.7-13.1-15.2c-5.7-3.6-12.5-5.3-20.5-5.3c-7.6,0-14.5,1.8-20.5,5.3
				c-6.1,3.6-10.8,8.6-14.3,15.1c-3.4,6.5-5.2,14.2-5.2,23c0,8.7,1.7,16.3,5.2,22.8c3.4,6.5,8.2,11.6,14.3,15.1
				c6.1,3.6,12.9,5.3,20.5,5.3c7.9,0,14.8-1.7,20.5-5.3c5.7-3.5,10.1-8.5,13.1-15.1h17.1c-4.1,10.5-10.6,18.5-19.4,24.2
				c-8.9,5.7-19.3,8.5-31.2,8.5c-10.1,0-19.4-2.4-27.7-7.1c-8.3-4.8-14.9-11.4-19.7-19.8c-4.8-8.5-7.2-18-7.2-28.7
				S327.8,284.2,332.6,275.7z"/>
			<path class="st0" d="M518.1,334.9h-47.7l-8.8,24.3h-15.1l39.5-108.7h16.5L542,359.2h-15.1L518.1,334.9z M514,323.3l-19.8-55.2
				l-19.8,55.2H514z"/>
			<path class="st0" d="M625.9,256.5c8.7,4.4,15.4,10.8,20.1,19.1c4.7,8.3,7,18,7,29.2c0,11.2-2.3,20.9-7,29.1
				c-4.7,8.2-11.3,14.5-20.1,18.8c-8.7,4.3-19.1,6.5-31,6.5h-34V249.9h34C606.9,249.9,617.2,252.1,625.9,256.5z M627.3,336.2
				c7.4-7.5,11.1-18,11.1-31.4c0-13.6-3.7-24.2-11.2-31.8c-7.5-7.6-18.2-11.4-32.2-11.4h-19.8v85.9H595
				C609.1,347.4,619.8,343.7,627.3,336.2z"/>
			<path class="st0" d="M687.8,261.5V298h39.8v11.8h-39.8v37.6h44.5v11.8h-58.8V249.7h58.8v11.8H687.8z"/>
			<path class="st0" d="M866.5,250.7v108.5h-14.3v-80.9l-36.1,80.9h-10l-36.2-81.1v81.1h-14.3V250.7H771l40.1,89.7l40.1-89.7H866.5z
				"/>
			<path class="st0" d="M968.9,249.9l-35.6,68.1v41.2h-14.3v-41.2l-35.8-68.1h15.8l27,55.4l27-55.4H968.9z"/>
		</g>
	</g>
</g>
<g id="Layer_2">
</g>
</svg>
