<?xml version="1.0" encoding="utf-8"?>
<!-- Generator: Adobe Illustrator 24.3.0, SVG Export Plug-In . SVG Version: 6.00 Build 0)  -->
<svg version="1.1" id="Layer_1" xmlns="http://www.w3.org/2000/svg" xmlns:xlink="http://www.w3.org/1999/xlink" x="0px" y="0px"
	 viewBox="0 0 658.8 176.6" style="enable-background:new 0 0 658.8 176.6;" xml:space="preserve">
<style type="text/css">
	.st0{fill-rule:evenodd;clip-rule:evenodd;fill:#575656;}
	.st1{fill:#575656;}
	.st2{fill-rule:evenodd;clip-rule:evenodd;fill:#E96631;}
</style>
<path class="st0" d="M639.8,3.4c8.6,0,15.6,7,15.6,15.6c0,8.6-7,15.6-15.6,15.6c-8.6,0-15.6-7-15.6-15.6
	C624.2,10.4,631.2,3.4,639.8,3.4 M639.8,0c10.5,0,19,8.5,19,19c0,10.5-8.5,19-19,19c-10.5,0-19-8.5-19-19C620.8,8.5,629.3,0,639.8,0
	z"/>
<path class="st1" d="M637.3,17.8V13h1.6c3.2,0,4.3,0.7,4.3,2.4c0,1.8-1.4,2.4-3.8,2.4H637.3z M633.1,28.7h4.3V21h1.9l4.9,7.7h4.9
	l-5.5-8.2c2.6-0.8,3.9-2.9,3.9-5.4c0-4.6-3.9-5.8-8.4-5.8h-6.1V28.7z"/>
<path class="st2" d="M577.8,113.8V50.7h-18.1l-47.4,61.1h-32.7V98.5l30.9-16.8c7.1-3.9,16.1-10.7,16.1-18.8v-6.3V40.3
	c0-8.1-10.2-16.1-18.3-16.1h-31.4c-8.1,0-18.5,8-18.5,16.1v15.1h21.5v-9c0-4.2,0.5-5.1,4.2-5.1h16.6c4.2,0,4.7,0.7,4.7,5.3v16.6
	l-33.9,18.7c-10,5.6-13.2,13.7-13.2,13.7v34.1h68.2v0h30.9v26.8h20.4v-26.8h16.5v-15.9H577.8z M557.4,113.8h-27.1l27.1-34.3V113.8z
	 M437,0H613v175.9H437V0z"/>
<path class="st1" d="M231.9,148.5c-3.5,0-9.9-0.5-9.9-7.2v-17.4h50.9c12.6,0,28.9-14.7,28.9-26.8V67.9c0-12.9-16.1-28.1-28.9-28.1
	h-55.7c-12.3,0-30.8,11.3-30.8,26.5v31.9l-16.9,0l-10.3,25.7l27.2-0.1V149c0,15,15,27.6,30.5,27.6h94.3v-28.1H231.9z M221.2,81
	c0-10.4,0.8-15.8,10.4-15.8h26.2c5.4,0,11.5,5.6,11.5,12.3v10.2c0,6.7-3.7,10.4-10.2,10.4h-38V81z"/>
<path class="st1" d="M396,39.7h-34.8c-7.8,0-9.9,9.6-15.8,14.2v-53h-34.8v147.6v28.1h14.9h63.8c12.9,0,34.3-17.9,34.3-30.8V67.3
	C423.6,54.5,406.5,39.7,396,39.7 M388.5,137c0,8-3.2,11.5-11,11.5h-32.9v-83h32.9c7.5,0,11,3.5,11,11.3V137z"/>
<polygon class="st1" points="148.6,40 122.6,120.9 94.5,40 72.8,40 44.1,120.9 18.7,40 17.5,40 0,89.9 32.3,176.6 52.1,176.6 
	82.7,100.3 110.8,176.6 130.6,176.6 186.1,40 "/>
</svg>
